# xmcd CD database file
#
# Track frame offsets:
#	150
#	38876
#	70441
#	96174
#	105213
#	126790
#	157600
#	181667
#	198764
#	228482
#	251431
#
# Disc length: 4356 seconds
#
# Revision: 0
# Processed by: cddbd v1.5.2PL0 Copyright (c) Steve Scherf et al.
# Submitted via: CDex 1.79
#
DISCID=7e11020b
DTITLE=Soul Secret - 4
DYEAR=2015
DGENRE=Progressive Metal
TTITLE0=On The Ledge
TTITLE1=Our Horizon
TTITLE2=K
TTITLE3=As I Close My Eyes
TTITLE4=Trace On The Seaside
TTITLE5=Turning The Back Page
TTITLE6=Silence
TTITLE7=In A Frame
TTITLE8=My Lighthouse
TTITLE9=Downfall
TTITLE10=The White Stairs
EXTD=YEAR: 2015
EXTT0=
EXTT1=
EXTT2=
EXTT3=
EXTT4=
EXTT5=
EXTT6=
EXTT7=
EXTT8=
EXTT9=
EXTT10=
PLAYORDER=
